<svg xmlns="http://www.w3.org/2000/svg" viewBox="0 0 351 322"><g id="Layer_1" data-name="Layer 1"><circle cx="26.5" cy="31.9" r="4.5"/><circle cx="26.5" cy="96.7" r="4.5"/><circle cx="26.5" cy="161.5" r="4.5"/><circle cx="26.5" cy="226.3" r="4.5"/><circle cx="26.5" cy="291.1" r="4.5"/><circle cx="82.5" cy="31.9" r="4.5"/><circle cx="82.5" cy="96.7" r="4.5"/><circle cx="82.5" cy="161.5" r="4.5"/><circle cx="82.5" cy="226.3" r="4.5"/><circle cx="82.5" cy="291.1" r="4.5"/><circle cx="138.5" cy="31.9" r="4.5"/><circle cx="138.5" cy="96.7" r="4.5"/><circle cx="138.5" cy="161.5" r="4.5"/><circle cx="138.5" cy="226.3" r="4.5"/><circle cx="138.5" cy="291.1" r="4.5"/><circle cx="194.5" cy="31.9" r="4.5"/><circle cx="194.5" cy="96.7" r="4.5"/><circle cx="194.5" cy="161.5" r="4.5"/><circle cx="194.5" cy="226.3" r="4.5"/><circle cx="194.5" cy="291.1" r="4.5"/><circle cx="250.5" cy="31.9" r="4.5"/><circle cx="250.5" cy="96.7" r="4.5"/><circle cx="250.5" cy="161.5" r="4.5"/><circle cx="250.5" cy="226.3" r="4.5"/><circle cx="250.5" cy="291.1" r="4.5"/><circle cx="306.5" cy="31.9" r="4.5"/><circle cx="306.5" cy="96.7" r="4.5"/><circle cx="306.5" cy="161.5" r="4.5"/><circle cx="306.5" cy="226.3" r="4.5"/><circle cx="306.5" cy="291.1" r="4.5"/></g><g id="Layer_2" data-name="Layer 2"><path d="M80,94.38q-.24,25.86-.47,51.72c-.06,6,.38,13.35,6.36,16.59,3.06,1.66,6.64,1.88,10,2.06q6.34.33,12.71.49,14.57.39,29.16-.07a1.54,1.54,0,0,0,1.5-1.5l2.86-53.57L143,94.9c.11-1.92-2.89-1.92-3,0l-2.86,53.57-.81,15.2,1.5-1.5q-12.47.39-24.93.17-6-.1-12-.36c-3.62-.15-7.45,0-11-.94a8.67,8.67,0,0,1-6.44-5.74,26.44,26.44,0,0,1-1-8.59c0-8.12.15-16.23.22-24.35l.26-28a1.5,1.5,0,0,0-3,0Z"/><path d="M84.64,96.9h49.53a1.5,1.5,0,0,0,0-3H84.64a1.5,1.5,0,0,0,0,3Z"/><path d="M93.26,117.86A182.73,182.73,0,0,0,92.37,147c.1,1.92,3.1,1.93,3,0a182.73,182.73,0,0,1,.89-29.12c.21-1.91-2.79-1.9-3,0Z"/><path d="M93.82,136.52l14.3-.4c1.93-.05,1.94-3.05,0-3l-14.3.4c-1.92,0-1.93,3,0,3Z"/><path d="M110,114.82l3.17,35.23c.17,1.91,3.17,1.92,3,0L113,114.82c-.17-1.9-3.17-1.92-3,0Z"/></g></svg>