<svg id="Layer_1" data-name="Layer 1" xmlns="http://www.w3.org/2000/svg" viewBox="0 0 513 443"><path d="M175.49,15.73q0,79.53-.82,159.06Q173.86,253.9,172.2,333q-.93,44.63-2.13,89.24c0,1.93,3,1.93,3,0q2.13-79.5,3.42-159,1.29-79.12,1.75-158.24.25-44.64.25-89.27a1.5,1.5,0,0,0-3,0Z"/><path d="M340.49,15.73q0,79.53-.82,159.06Q338.86,253.9,337.2,333q-.93,44.63-2.13,89.24c-.05,1.93,2.95,1.93,3,0q2.13-79.5,3.42-159,1.29-79.12,1.75-158.24.25-44.64.25-89.27a1.5,1.5,0,0,0-3,0Z"/><path d="M494.81,143.46q-91.59-2.24-183.15-5.3-91.1-3.06-182.15-6.94Q78.15,129,26.79,126.58c-1.93-.09-1.93,2.91,0,3q91.5,4.36,183,7.91Q300.91,141,392,143.69q51.39,1.51,102.79,2.77c1.93,0,1.93-3,0-3Z"/><path d="M490.78,308.41q-91.59-2.24-183.15-5.3-91.09-3.06-182.16-6.94Q74.11,294,22.75,291.53c-1.93-.09-1.92,2.91,0,3q91.52,4.38,183.05,7.91,91.08,3.51,182.18,6.2,51.39,1.51,102.8,2.77c1.93,0,1.93-3,0-3Z"/></svg>